<?xml version="1.0" encoding="utf-8"?>
<!-- Generator: Adobe Illustrator 23.0.1, SVG Export Plug-In . SVG Version: 6.00 Build 0)  -->
<svg version="1.1" id="Слой_1" xmlns="http://www.w3.org/2000/svg" xmlns:xlink="http://www.w3.org/1999/xlink" x="0px" y="0px"
	 viewBox="0 0 30 30" style="enable-background:new 0 0 24 24;" xml:space="preserve">
<style type="text/css">
	.st0{fill:#FFFFFF;}
</style>
<path class="st0" d="M20.9,10.7c-0.3-0.2-3-1.7-4-2.3l0,0L4.6,1.3C4.2,1,3.7,0.9,3.2,1.1c0,0-0.1,0-0.1,0C3.1,1.1,3,1.2,3,1.2
	C2.5,1.5,2.2,2,2.2,2.6v19c0,0.5,0.2,1,0.7,1.3c0.1,0,0.1,0,0.2,0.1c0,0,0.1,0,0.1,0C3.3,23,3.5,23,3.6,23c0.3,0,0.6-0.1,0.8-0.2
	c0.4-0.2,12.4-7.2,12.4-7.2l4-2.3c0.5-0.3,0.8-0.8,0.8-1.3C21.7,11.4,21.4,10.9,20.9,10.7z M4.2,19.8V4.1l7.9,7.9L4.2,19.8z
	 M9.3,17.7l4.3-4.3l1.1,1.1C13.5,15.2,11.4,16.5,9.3,17.7L9.3,17.7z M13.6,10.6L9.2,6.2l5.6,3.2L13.6,10.6z M16.6,13.5L15,12
	l1.5-1.5c0.7,0.4,1.8,1.1,2.6,1.5L16.6,13.5z"/>
</svg>
