<?xml version="1.0" encoding="utf-8"?>
<!-- Generator: Adobe Illustrator 23.0.1, SVG Export Plug-In . SVG Version: 6.00 Build 0)  -->
<svg version="1.1" id="Слой_1" xmlns="http://www.w3.org/2000/svg" xmlns:xlink="http://www.w3.org/1999/xlink" x="0px" y="0px"
	 viewBox="0 0 24 24" style="enable-background:new 0 0 24 24;" xml:space="preserve">
<style type="text/css">
	.st0{fill:#FFFFFF;}
</style>
<path class="st0" d="M16.1,9.3c0.6-0.6,1.1-1.8-1.2-0.3c-2.1,1.5-4.3,2.9-6.5,4.4c-0.7,0.3-1.4,0.3-2.1,0c-1.4-0.4-3-1-3-1
	S2.2,11.8,4.1,11c0,0,8-3.3,10.7-4.4c1.1-0.5,4.6-1.9,4.6-1.9S21.1,4,21,5.6c0,0.6-0.4,2.9-0.8,5.3c-0.6,3.5-1.2,7.2-1.2,7.2
	s-0.1,1.1-0.9,1.2c-0.8,0-1.6-0.3-2.3-0.8c-0.2-0.1-3.5-2.2-4.6-3.2c-0.4-0.3-0.5-0.8-0.2-1.2c0.1-0.1,0.2-0.2,0.3-0.3
	C12.9,12.4,14.5,10.9,16.1,9.3z"/>
</svg>
