<?xml version="1.0" encoding="utf-8"?>
<!-- Generator: Adobe Illustrator 23.0.1, SVG Export Plug-In . SVG Version: 6.00 Build 0)  -->
<svg version="1.1" id="Слой_1" xmlns="http://www.w3.org/2000/svg" xmlns:xlink="http://www.w3.org/1999/xlink" x="0px" y="0px"
	 viewBox="0 0 128 128" style="enable-background:new 0 0 128 128;" xml:space="preserve">
<style type="text/css">
	.st0{fill:#FFFFFF;}
</style>
<path class="st0" d="M86.6,4l-20,0v82.5c0,7.1-4.3,13.5-10.8,16.2c-6.5,2.7-14.1,1.2-19.1-3.8c-5-5-6.5-12.5-3.8-19.1
	C35.6,73.3,42,69,49.1,69h6.5V49h-6.5c-15.2,0-28.8,9.1-34.6,23.1c-5.8,14-2.6,30.1,8.1,40.9c10.7,10.7,26.8,13.9,40.9,8.1
	c14-5.8,23.1-19.5,23.1-34.6V40.8c5.4,3.2,11.9,5.6,19.8,5.6h10v-20h-10c-11.2,0-14.3-4.6-17-10.4C86.8,10.2,86.6,4,86.6,4z"/>
</svg>
